<?xml version="1.0" encoding="UTF-8"?>
<svg width="49px" height="272px" viewBox="0 0 49 272" version="1.1" xmlns="http://www.w3.org/2000/svg" xmlns:xlink="http://www.w3.org/1999/xlink">
    <!-- Generator: Sketch 51.2 (57519) - http://www.bohemiancoding.com/sketch -->
    <title>Group</title>
    <desc>Created with Sketch.</desc>
    <defs></defs>
    <g id="Page-1" stroke="none" stroke-width="1" fill="none" fill-rule="evenodd">
        <g id="Group" transform="translate(1.000000, 0.000000)">
            <path d="M24.25,0.5 L24.25,55.5" id="Line" stroke="#060606" stroke-linecap="square"></path>
            <path id="Line-2" d="M24.25,272 L28.75,263 L19.75,263 L24.25,272 Z M23.75,212.5 L23.75,263.5 L23.75,264 L24.75,264 L24.75,263.5 L24.75,212.5 L24.75,212 L23.75,212 L23.75,212.5 Z" fill="#040303" fill-rule="nonzero"></path>
            <path d="M23.5,174 C45.0723738,174 47,161.107778 47,136.315166 C47,111.522554 45.0723738,98 23.5,98 C1.92762619,98 0,111.522554 0,136.315166 C0,161.107778 1.92762619,174 23.5,174 Z" id="Oval" stroke="#050505" fill="#FFFFFF"></path>
            <path d="M23.9,121 C23.9,127.294331 23.9,131.305987 23.9,133.034969" id="Line-3" stroke="#000000" stroke-width="3" stroke-linecap="square"></path>
        </g>
    </g>
</svg>